# xmcd
# 
# Track frame offsets:
#     150
#     20020
#     36832
#     54128
#     72975
#     92809
#     110221
#     127652
#     148361
#     165254
#     191849
# 
# Disc length: 2755
# 
# Revision: 0
# Processed by: cddbd v1.5.2PL0 Copyright (c) Steve Scherf et al.
# Submitted via: fre:ac v1.0.17
# 
DISCID=990ac10b
DTITLE=Patrick Norman - Après la tombée du rideau
DYEAR=2014
DGENRE=Country
TTITLE0=Après la tombée du rideau
TTITLE1=Quand elle laisse tomber ses cheveux
TTITLE2=On dépend l'un de l'autre
TTITLE3=Viens danser
TTITLE4=Tous nos départs
TTITLE5=C'était l'été
TTITLE6=Jamais t'auras ma peau
TTITLE7=Je fais pleurer mes amis
TTITLE8=Tout simplement
TTITLE9=Babe
TTITLE10=Chanson pour Maxence
EXTD=
EXTT0=
EXTT1=
EXTT2=
EXTT3=
EXTT4=
EXTT5=
EXTT6=
EXTT7=
EXTT8=
EXTT9=
EXTT10=
PLAYORDER=
